<svg xmlns="http://www.w3.org/2000/svg" xmlns:xlink="http://www.w3.org/1999/xlink" width="500" zoomAndPan="magnify" viewBox="0 0 375 374.999991" height="500" preserveAspectRatio="xMidYMid meet" version="1.0"><defs><clipPath id="14db0811c1"><path d="M 0 7 L 369 7 L 369 368.296875 L 0 368.296875 Z M 0 7 " clip-rule="nonzero"/></clipPath><clipPath id="ceb26e239b"><path d="M 0 123 L 253 123 L 253 368.296875 L 0 368.296875 Z M 0 123 " clip-rule="nonzero"/></clipPath></defs><g clip-path="url(#14db0811c1)"><path fill="#1e293b" d="M 225.609375 66.753906 C 263.449219 66.863281 294.496094 90.042969 305.347656 125.449219 C 315.59375 158.882812 302.214844 195.589844 272.292969 215.796875 C 256.054688 226.773438 237.910156 229.917969 218.601562 229.363281 C 205.425781 228.984375 195.761719 235.773438 190.320312 247.660156 C 184.945312 259.394531 187.03125 270.5625 196.039062 279.65625 C 214.296875 298.09375 232.550781 316.53125 281.300781 368.113281 L 365.863281 368.113281 C 317.566406 316.878906 299.28125 299.253906 279.816406 280.183594 C 286.003906 276.898438 290.179688 274.8125 294.226562 272.507812 C 337.40625 247.875 363.4375 210.953125 367.6875 161.464844 C 375.035156 76.023438 310.703125 7.367188 224.933594 7.191406 C 149.953125 7.027344 74.972656 7.128906 0 7.15625 L 0 66.632812 C 75.203125 66.6875 150.40625 66.53125 225.609375 66.753906 Z M 225.609375 66.753906 " fill-opacity="1" fill-rule="nonzero"/></g><g clip-path="url(#ceb26e239b)"><path fill="#1e293b" d="M 62.96875 183.453125 C 73.378906 183.136719 76.347656 186.042969 76.234375 196.585938 C 75.785156 242.671875 75.828125 288.757812 75.988281 368.113281 L 135.890625 368.113281 C 135.957031 291.277344 135.921875 247.707031 135.929688 204.128906 C 135.929688 198.003906 135.929688 191.890625 135.929688 183.691406 C 141.140625 183.691406 145.019531 183.691406 148.902344 183.691406 C 172.746094 183.691406 196.589844 183.699219 220.4375 183.691406 C 232.082031 183.683594 241.660156 179.503906 247.886719 169.324219 C 260.703125 148.367188 246.023438 123.695312 220.140625 123.605469 C 146.761719 123.328125 73.378906 123.4375 0 123.566406 L 0 183.691406 C 20.984375 184.003906 41.992188 184.097656 62.96875 183.453125 Z M 62.96875 183.453125 " fill-opacity="1" fill-rule="nonzero"/></g></svg>